<svg width="38" height="39" viewBox="0 0 38 39" fill="none" xmlns="http://www.w3.org/2000/svg">
<path d="M20.3095 13.5783L22.6837 11L26.8384 15.5121L24.4642 18.0904M20.3095 13.5783L12.2458 22.3355C12.0884 22.5064 12 22.7383 12 22.98V27.1145H15.8071C16.0297 27.1145 16.2432 27.0185 16.4006 26.8475L24.4642 18.0904M20.3095 13.5783L24.4642 18.0904" stroke="#EBC051" stroke-width="3" stroke-linecap="round" stroke-linejoin="round"/>
<path d="M18.8894 37C28.3392 37 36 29.1649 36 19.5C36 9.83501 28.3392 2 18.8894 2C9.43948 2 1.77881 9.83501 1.77881 19.5C1.77881 29.1649 9.43948 37 18.8894 37Z" stroke="#EBC051" stroke-width="3" stroke-linecap="round" stroke-linejoin="round"/>
</svg>
