<svg width="29" height="28" viewBox="0 0 29 28" fill="none" xmlns="http://www.w3.org/2000/svg">
<path d="M5.0948 28H23.9052C27.2603 28 29 26.3203 29 23.1259V4.87413C29 1.6647 27.2603 0 23.9052 0H5.0948C1.73969 0 0 1.6647 0 4.87413V23.1259C0 26.3353 1.73969 28 5.0948 28ZM5.2812 25.0605C3.83664 25.0605 3.04446 24.3257 3.04446 22.8709V5.11409C3.04446 3.65935 3.83664 2.93948 5.2812 2.93948H23.7188C25.1478 2.93948 25.9555 3.65935 25.9555 5.11409V22.8709C25.9555 24.3257 25.1478 25.0605 23.7188 25.0605H5.2812ZM14.4922 20.1864C20.5656 20.1864 24.6974 15.4472 24.6974 13.9925C24.6974 12.5228 20.5501 7.78361 14.4922 7.78361C8.46545 7.78361 4.28709 12.5228 4.28709 13.9925C4.28709 15.4472 8.48099 20.1864 14.4922 20.1864ZM14.4922 18.0118C12.1778 18.0118 10.3139 16.1671 10.3139 13.9925C10.3139 11.7429 12.1778 9.95822 14.4922 9.95822C16.8066 9.95822 18.6706 11.7429 18.6706 13.9925C18.6706 16.1671 16.8066 18.0118 14.4922 18.0118ZM14.5233 15.7472C15.4863 15.7472 16.3251 14.9373 16.3251 13.9925C16.3251 13.0477 15.4863 12.2228 14.5233 12.2228C13.5137 12.2228 12.6749 13.0477 12.6749 13.9925C12.6749 14.9373 13.5137 15.7472 14.5233 15.7472Z" fill="#1C1C1E"/>
</svg>
