<svg width="34" height="35" viewBox="0 0 34 35" fill="none" xmlns="http://www.w3.org/2000/svg">
<path d="M16.5878 0.15625C7.43393 0.15625 0.012207 7.91773 0.012207 17.4907C0.012207 27.0636 7.43393 34.8251 16.5878 34.8251C25.7417 34.8251 33.1634 27.0636 33.1634 17.4907C33.1634 7.91773 25.7417 0.15625 16.5878 0.15625ZM17.9691 26.1579H15.2065V16.0461H17.9691V26.1579ZM16.5878 12.4348C15.4441 12.4348 14.5159 11.4641 14.5159 10.268C14.5159 9.07191 15.4441 8.10119 16.5878 8.10119C17.7315 8.10119 18.6598 9.07191 18.6598 10.268C18.6598 11.4641 17.7315 12.4348 16.5878 12.4348Z" fill="white"/>
</svg>
